<?xml version="1.0"?><svg xmlns="http://www.w3.org/2000/svg"  viewBox="0 0 24 24" width="384px" height="384px">    <path d="M21.915,10.752L21.697,9h-4.393l2.974-2.974l-1.548-1.411C16.88,2.929,14.49,2,12,2C6.486,2,2,6.486,2,12s4.486,10,10,10 s10-4.486,10-10C22,11.61,21.973,11.214,21.915,10.752z M12,20c-4.418,0-8-3.582-8-8s3.582-8,8-8c2.076,0,3.96,0.797,5.382,2.093 l-2.134,2.134C14.372,7.473,13.247,7,12,7c-2.761,0-5,2.239-5,5s2.239,5,5,5c2.049,0,3.806-1.236,4.578-3H13v-3h6.931 C19.972,11.328,20,11.661,20,12C20,16.418,16.418,20,12,20z M11,9.171V11v3v0.829C9.836,14.416,9,13.304,9,12S9.836,9.584,11,9.171 z"/></svg>